<mxfile host="app.diagrams.net" modified="2024-03-20T11:08:36.716Z" agent="Mozilla/5.0 (Windows NT 10.0; Win64; x64) AppleWebKit/537.36 (KHTML, like Gecko) Chrome/122.0.0.0 Safari/537.36" etag="Ofnx7y7JcvqWGQrTX1OI" version="24.0.7" type="github">
  <diagram name="Página-1" id="_Vj9PdJe2Nyqd4n5zn4X">
    <mxGraphModel dx="1434" dy="780" grid="1" gridSize="10" guides="1" tooltips="1" connect="1" arrows="1" fold="1" page="1" pageScale="1" pageWidth="827" pageHeight="1169" math="0" shadow="0">
      <root>
        <mxCell id="0" />
        <mxCell id="1" parent="0" />
        <mxCell id="niinbXQ_s8YvSzmDSHEQ-1" value="Ex02" style="text;html=1;align=center;verticalAlign=middle;whiteSpace=wrap;rounded=0;" parent="1" vertex="1">
          <mxGeometry x="20" width="60" height="30" as="geometry" />
        </mxCell>
        <mxCell id="niinbXQ_s8YvSzmDSHEQ-20" style="edgeStyle=orthogonalEdgeStyle;rounded=0;orthogonalLoop=1;jettySize=auto;html=1;exitX=0.75;exitY=1;exitDx=0;exitDy=0;endArrow=oval;endFill=0;entryX=0.443;entryY=-0.033;entryDx=0;entryDy=0;entryPerimeter=0;" parent="1" source="niinbXQ_s8YvSzmDSHEQ-2" target="niinbXQ_s8YvSzmDSHEQ-14" edge="1">
          <mxGeometry relative="1" as="geometry">
            <mxPoint x="88.4" y="215" as="targetPoint" />
          </mxGeometry>
        </mxCell>
        <mxCell id="niinbXQ_s8YvSzmDSHEQ-38" style="edgeStyle=orthogonalEdgeStyle;rounded=0;orthogonalLoop=1;jettySize=auto;html=1;exitX=1;exitY=0.5;exitDx=0;exitDy=0;endArrow=none;endFill=0;" parent="1" source="niinbXQ_s8YvSzmDSHEQ-2" target="6Jt0nRZ-1w5wAIzkCixZ-27" edge="1">
          <mxGeometry relative="1" as="geometry">
            <mxPoint x="178.4" y="160" as="targetPoint" />
          </mxGeometry>
        </mxCell>
        <mxCell id="niinbXQ_s8YvSzmDSHEQ-2" value="Cliente" style="whiteSpace=wrap;html=1;align=center;" parent="1" vertex="1">
          <mxGeometry x="8.400000000000006" y="135" width="100" height="40" as="geometry" />
        </mxCell>
        <mxCell id="niinbXQ_s8YvSzmDSHEQ-11" value="rg" style="text;strokeColor=none;fillColor=none;spacingLeft=4;spacingRight=4;overflow=hidden;rotatable=0;points=[[0,0.5],[1,0.5]];portConstraint=eastwest;fontSize=12;whiteSpace=wrap;html=1;" parent="1" vertex="1">
          <mxGeometry x="8.400000000000006" y="70" width="40" height="30" as="geometry" />
        </mxCell>
        <mxCell id="niinbXQ_s8YvSzmDSHEQ-12" value="nome" style="text;strokeColor=none;fillColor=none;spacingLeft=4;spacingRight=4;overflow=hidden;rotatable=0;points=[[0,0.5],[1,0.5]];portConstraint=eastwest;fontSize=12;whiteSpace=wrap;html=1;" parent="1" vertex="1">
          <mxGeometry x="68.4" y="70" width="40" height="30" as="geometry" />
        </mxCell>
        <mxCell id="niinbXQ_s8YvSzmDSHEQ-13" value="telefone" style="text;strokeColor=none;fillColor=none;spacingLeft=4;spacingRight=4;overflow=hidden;rotatable=0;points=[[0,0.5],[1,0.5]];portConstraint=eastwest;fontSize=12;whiteSpace=wrap;html=1;" parent="1" vertex="1">
          <mxGeometry x="8.400000000000006" y="220" width="70" height="30" as="geometry" />
        </mxCell>
        <mxCell id="niinbXQ_s8YvSzmDSHEQ-14" value="endereco" style="text;strokeColor=none;fillColor=none;spacingLeft=4;spacingRight=4;overflow=hidden;rotatable=0;points=[[0,0.5],[1,0.5]];portConstraint=eastwest;fontSize=12;whiteSpace=wrap;html=1;" parent="1" vertex="1">
          <mxGeometry x="58.400000000000006" y="220" width="70" height="30" as="geometry" />
        </mxCell>
        <mxCell id="niinbXQ_s8YvSzmDSHEQ-15" style="edgeStyle=orthogonalEdgeStyle;rounded=0;orthogonalLoop=1;jettySize=auto;html=1;exitX=0.196;exitY=0.024;exitDx=0;exitDy=0;entryX=0.491;entryY=1.009;entryDx=0;entryDy=0;entryPerimeter=0;endArrow=oval;endFill=1;exitPerimeter=0;" parent="1" source="niinbXQ_s8YvSzmDSHEQ-2" target="niinbXQ_s8YvSzmDSHEQ-11" edge="1">
          <mxGeometry relative="1" as="geometry" />
        </mxCell>
        <mxCell id="niinbXQ_s8YvSzmDSHEQ-17" style="edgeStyle=orthogonalEdgeStyle;rounded=0;orthogonalLoop=1;jettySize=auto;html=1;exitX=0.75;exitY=0;exitDx=0;exitDy=0;entryX=0.594;entryY=1.032;entryDx=0;entryDy=0;entryPerimeter=0;endArrow=oval;endFill=0;" parent="1" source="niinbXQ_s8YvSzmDSHEQ-2" target="niinbXQ_s8YvSzmDSHEQ-12" edge="1">
          <mxGeometry relative="1" as="geometry">
            <mxPoint x="88.4" y="110" as="targetPoint" />
          </mxGeometry>
        </mxCell>
        <mxCell id="niinbXQ_s8YvSzmDSHEQ-18" style="edgeStyle=orthogonalEdgeStyle;rounded=0;orthogonalLoop=1;jettySize=auto;html=1;entryX=0.31;entryY=-0.014;entryDx=0;entryDy=0;entryPerimeter=0;endArrow=oval;endFill=0;" parent="1" target="niinbXQ_s8YvSzmDSHEQ-13" edge="1">
          <mxGeometry relative="1" as="geometry">
            <mxPoint x="33.400000000000006" y="180" as="sourcePoint" />
          </mxGeometry>
        </mxCell>
        <mxCell id="niinbXQ_s8YvSzmDSHEQ-26" style="edgeStyle=orthogonalEdgeStyle;rounded=0;orthogonalLoop=1;jettySize=auto;html=1;exitX=0.75;exitY=1;exitDx=0;exitDy=0;entryX=0.182;entryY=-0.152;entryDx=0;entryDy=0;entryPerimeter=0;endArrow=oval;endFill=0;" parent="1" source="niinbXQ_s8YvSzmDSHEQ-27" target="niinbXQ_s8YvSzmDSHEQ-31" edge="1">
          <mxGeometry relative="1" as="geometry">
            <mxPoint x="774.8000000000001" y="210" as="targetPoint" />
          </mxGeometry>
        </mxCell>
        <mxCell id="niinbXQ_s8YvSzmDSHEQ-63" style="edgeStyle=orthogonalEdgeStyle;rounded=0;orthogonalLoop=1;jettySize=auto;html=1;endArrow=oval;endFill=1;" parent="1" source="niinbXQ_s8YvSzmDSHEQ-27" edge="1">
          <mxGeometry relative="1" as="geometry">
            <mxPoint x="834.8000000000001" y="160" as="targetPoint" />
          </mxGeometry>
        </mxCell>
        <mxCell id="niinbXQ_s8YvSzmDSHEQ-27" value="Produto" style="whiteSpace=wrap;html=1;align=center;" parent="1" vertex="1">
          <mxGeometry x="684.8" y="140" width="110" height="40" as="geometry" />
        </mxCell>
        <mxCell id="niinbXQ_s8YvSzmDSHEQ-28" value="&lt;div&gt;nome&lt;/div&gt;" style="text;strokeColor=none;fillColor=none;spacingLeft=4;spacingRight=4;overflow=hidden;rotatable=0;points=[[0,0.5],[1,0.5]];portConstraint=eastwest;fontSize=12;whiteSpace=wrap;html=1;" parent="1" vertex="1">
          <mxGeometry x="684.8" y="70" width="40" height="30" as="geometry" />
        </mxCell>
        <mxCell id="niinbXQ_s8YvSzmDSHEQ-29" value="tipo" style="text;strokeColor=none;fillColor=none;spacingLeft=4;spacingRight=4;overflow=hidden;rotatable=0;points=[[0,0.5],[1,0.5]];portConstraint=eastwest;fontSize=12;whiteSpace=wrap;html=1;" parent="1" vertex="1">
          <mxGeometry x="734.8000000000001" y="70" width="50" height="30" as="geometry" />
        </mxCell>
        <mxCell id="niinbXQ_s8YvSzmDSHEQ-30" value="preço" style="text;strokeColor=none;fillColor=none;spacingLeft=4;spacingRight=4;overflow=hidden;rotatable=0;points=[[0,0.5],[1,0.5]];portConstraint=eastwest;fontSize=12;whiteSpace=wrap;html=1;" parent="1" vertex="1">
          <mxGeometry x="684.8" y="220" width="70" height="30" as="geometry" />
        </mxCell>
        <mxCell id="niinbXQ_s8YvSzmDSHEQ-31" value="quantidade" style="text;strokeColor=none;fillColor=none;spacingLeft=4;spacingRight=4;overflow=hidden;rotatable=0;points=[[0,0.5],[1,0.5]];portConstraint=eastwest;fontSize=12;whiteSpace=wrap;html=1;" parent="1" vertex="1">
          <mxGeometry x="744.8000000000001" y="220" width="90" height="30" as="geometry" />
        </mxCell>
        <mxCell id="niinbXQ_s8YvSzmDSHEQ-32" style="edgeStyle=orthogonalEdgeStyle;rounded=0;orthogonalLoop=1;jettySize=auto;html=1;exitX=0.196;exitY=0.024;exitDx=0;exitDy=0;entryX=0.499;entryY=1.101;entryDx=0;entryDy=0;entryPerimeter=0;endArrow=oval;endFill=0;exitPerimeter=0;" parent="1" source="niinbXQ_s8YvSzmDSHEQ-27" target="niinbXQ_s8YvSzmDSHEQ-28" edge="1">
          <mxGeometry relative="1" as="geometry" />
        </mxCell>
        <mxCell id="niinbXQ_s8YvSzmDSHEQ-33" style="edgeStyle=orthogonalEdgeStyle;rounded=0;orthogonalLoop=1;jettySize=auto;html=1;exitX=0.75;exitY=0;exitDx=0;exitDy=0;entryX=0.441;entryY=1.055;entryDx=0;entryDy=0;entryPerimeter=0;endArrow=oval;endFill=0;" parent="1" source="niinbXQ_s8YvSzmDSHEQ-27" target="niinbXQ_s8YvSzmDSHEQ-29" edge="1">
          <mxGeometry relative="1" as="geometry">
            <mxPoint x="764.8000000000001" y="110" as="targetPoint" />
          </mxGeometry>
        </mxCell>
        <mxCell id="niinbXQ_s8YvSzmDSHEQ-34" style="edgeStyle=orthogonalEdgeStyle;rounded=0;orthogonalLoop=1;jettySize=auto;html=1;exitX=0.213;exitY=1.076;exitDx=0;exitDy=0;entryX=0.31;entryY=-0.014;entryDx=0;entryDy=0;entryPerimeter=0;endArrow=oval;endFill=0;exitPerimeter=0;" parent="1" source="niinbXQ_s8YvSzmDSHEQ-27" target="niinbXQ_s8YvSzmDSHEQ-30" edge="1">
          <mxGeometry relative="1" as="geometry" />
        </mxCell>
        <mxCell id="niinbXQ_s8YvSzmDSHEQ-39" style="edgeStyle=orthogonalEdgeStyle;rounded=0;orthogonalLoop=1;jettySize=auto;html=1;entryX=0;entryY=0.5;entryDx=0;entryDy=0;endArrow=none;endFill=0;" parent="1" source="6Jt0nRZ-1w5wAIzkCixZ-29" target="niinbXQ_s8YvSzmDSHEQ-27" edge="1">
          <mxGeometry relative="1" as="geometry">
            <mxPoint x="298.4" y="160" as="sourcePoint" />
          </mxGeometry>
        </mxCell>
        <mxCell id="niinbXQ_s8YvSzmDSHEQ-53" style="edgeStyle=orthogonalEdgeStyle;rounded=0;orthogonalLoop=1;jettySize=auto;html=1;exitX=0.5;exitY=0;exitDx=0;exitDy=0;endArrow=oval;endFill=0;" parent="1" target="niinbXQ_s8YvSzmDSHEQ-52" edge="1">
          <mxGeometry relative="1" as="geometry">
            <mxPoint x="373.4" y="130" as="sourcePoint" />
          </mxGeometry>
        </mxCell>
        <mxCell id="niinbXQ_s8YvSzmDSHEQ-59" style="edgeStyle=orthogonalEdgeStyle;rounded=0;orthogonalLoop=1;jettySize=auto;html=1;endArrow=oval;endFill=0;" parent="1" target="niinbXQ_s8YvSzmDSHEQ-54" edge="1">
          <mxGeometry relative="1" as="geometry">
            <mxPoint x="373.4" y="190" as="sourcePoint" />
          </mxGeometry>
        </mxCell>
        <mxCell id="niinbXQ_s8YvSzmDSHEQ-52" value="dataCompra" style="text;html=1;align=center;verticalAlign=middle;resizable=0;points=[];autosize=1;strokeColor=none;fillColor=none;" parent="1" vertex="1">
          <mxGeometry x="328.4" y="70" width="90" height="30" as="geometry" />
        </mxCell>
        <mxCell id="niinbXQ_s8YvSzmDSHEQ-54" value="valorTotal" style="text;html=1;align=center;verticalAlign=middle;resizable=0;points=[];autosize=1;strokeColor=none;fillColor=none;" parent="1" vertex="1">
          <mxGeometry x="338.4" y="220" width="70" height="30" as="geometry" />
        </mxCell>
        <mxCell id="niinbXQ_s8YvSzmDSHEQ-60" value="(1,n)" style="text;strokeColor=none;fillColor=none;spacingLeft=4;spacingRight=4;overflow=hidden;rotatable=0;points=[[0,0.5],[1,0.5]];portConstraint=eastwest;fontSize=12;whiteSpace=wrap;html=1;" parent="1" vertex="1">
          <mxGeometry x="621.6" y="130" width="40" height="30" as="geometry" />
        </mxCell>
        <mxCell id="niinbXQ_s8YvSzmDSHEQ-61" value="(1,1)" style="text;html=1;align=center;verticalAlign=middle;resizable=0;points=[];autosize=1;strokeColor=none;fillColor=none;" parent="1" vertex="1">
          <mxGeometry x="108.4" y="130" width="50" height="30" as="geometry" />
        </mxCell>
        <mxCell id="niinbXQ_s8YvSzmDSHEQ-62" value="codigo" style="text;strokeColor=none;fillColor=none;spacingLeft=4;spacingRight=4;overflow=hidden;rotatable=0;points=[[0,0.5],[1,0.5]];portConstraint=eastwest;fontSize=12;whiteSpace=wrap;html=1;" parent="1" vertex="1">
          <mxGeometry x="831.6" y="145" width="60" height="30" as="geometry" />
        </mxCell>
        <mxCell id="niinbXQ_s8YvSzmDSHEQ-64" value="Ex03" style="text;html=1;align=center;verticalAlign=middle;whiteSpace=wrap;rounded=0;" parent="1" vertex="1">
          <mxGeometry x="20" y="330" width="60" height="30" as="geometry" />
        </mxCell>
        <mxCell id="niinbXQ_s8YvSzmDSHEQ-65" style="edgeStyle=orthogonalEdgeStyle;rounded=0;orthogonalLoop=1;jettySize=auto;html=1;entryX=0.182;entryY=-0.152;entryDx=0;entryDy=0;entryPerimeter=0;endArrow=oval;endFill=0;exitX=0.75;exitY=1;exitDx=0;exitDy=0;" parent="1" source="6Jt0nRZ-1w5wAIzkCixZ-34" edge="1">
          <mxGeometry relative="1" as="geometry">
            <mxPoint x="440.9200000000001" y="505.16999999999985" as="targetPoint" />
            <mxPoint x="445" y="480" as="sourcePoint" />
          </mxGeometry>
        </mxCell>
        <mxCell id="niinbXQ_s8YvSzmDSHEQ-68" value="nome" style="text;strokeColor=none;fillColor=none;spacingLeft=4;spacingRight=4;overflow=hidden;rotatable=0;points=[[0,0.5],[1,0.5]];portConstraint=eastwest;fontSize=12;whiteSpace=wrap;html=1;" parent="1" vertex="1">
          <mxGeometry x="355" y="360" width="40" height="30" as="geometry" />
        </mxCell>
        <mxCell id="niinbXQ_s8YvSzmDSHEQ-69" value="dataNascimento" style="text;strokeColor=none;fillColor=none;spacingLeft=4;spacingRight=4;overflow=hidden;rotatable=0;points=[[0,0.5],[1,0.5]];portConstraint=eastwest;fontSize=12;whiteSpace=wrap;html=1;" parent="1" vertex="1">
          <mxGeometry x="395" y="360" width="110" height="30" as="geometry" />
        </mxCell>
        <mxCell id="niinbXQ_s8YvSzmDSHEQ-70" value="peso" style="text;strokeColor=none;fillColor=none;spacingLeft=4;spacingRight=4;overflow=hidden;rotatable=0;points=[[0,0.5],[1,0.5]];portConstraint=eastwest;fontSize=12;whiteSpace=wrap;html=1;" parent="1" vertex="1">
          <mxGeometry x="364" y="510" width="50" height="30" as="geometry" />
        </mxCell>
        <mxCell id="niinbXQ_s8YvSzmDSHEQ-71" value="altura" style="text;strokeColor=none;fillColor=none;spacingLeft=4;spacingRight=4;overflow=hidden;rotatable=0;points=[[0,0.5],[1,0.5]];portConstraint=eastwest;fontSize=12;whiteSpace=wrap;html=1;" parent="1" vertex="1">
          <mxGeometry x="435" y="510" width="60" height="30" as="geometry" />
        </mxCell>
        <mxCell id="niinbXQ_s8YvSzmDSHEQ-72" style="edgeStyle=orthogonalEdgeStyle;rounded=0;orthogonalLoop=1;jettySize=auto;html=1;exitX=0.11;exitY=0.05;exitDx=0;exitDy=0;entryX=0.491;entryY=1.009;entryDx=0;entryDy=0;entryPerimeter=0;endArrow=oval;endFill=1;exitPerimeter=0;" parent="1" source="6Jt0nRZ-1w5wAIzkCixZ-34" edge="1">
          <mxGeometry relative="1" as="geometry">
            <mxPoint x="370.3800000000001" y="422.70000000000005" as="sourcePoint" />
            <mxPoint x="369.6400000000001" y="390" as="targetPoint" />
          </mxGeometry>
        </mxCell>
        <mxCell id="niinbXQ_s8YvSzmDSHEQ-75" style="edgeStyle=orthogonalEdgeStyle;rounded=0;orthogonalLoop=1;jettySize=auto;html=1;exitX=0.75;exitY=1;exitDx=0;exitDy=0;entryX=0.182;entryY=-0.152;entryDx=0;entryDy=0;entryPerimeter=0;endArrow=oval;endFill=0;" parent="1" source="niinbXQ_s8YvSzmDSHEQ-77" target="niinbXQ_s8YvSzmDSHEQ-81" edge="1">
          <mxGeometry relative="1" as="geometry">
            <mxPoint x="763.2" y="500" as="targetPoint" />
          </mxGeometry>
        </mxCell>
        <mxCell id="6Jt0nRZ-1w5wAIzkCixZ-36" style="edgeStyle=orthogonalEdgeStyle;rounded=0;orthogonalLoop=1;jettySize=auto;html=1;endArrow=none;endFill=0;" edge="1" parent="1" source="6Jt0nRZ-1w5wAIzkCixZ-38" target="6Jt0nRZ-1w5wAIzkCixZ-34">
          <mxGeometry relative="1" as="geometry" />
        </mxCell>
        <mxCell id="niinbXQ_s8YvSzmDSHEQ-77" value="Medico" style="whiteSpace=wrap;html=1;align=center;" parent="1" vertex="1">
          <mxGeometry x="673.2" y="430" width="110" height="40" as="geometry" />
        </mxCell>
        <mxCell id="niinbXQ_s8YvSzmDSHEQ-78" value="&lt;div&gt;nome&lt;/div&gt;" style="text;strokeColor=none;fillColor=none;spacingLeft=4;spacingRight=4;overflow=hidden;rotatable=0;points=[[0,0.5],[1,0.5]];portConstraint=eastwest;fontSize=12;whiteSpace=wrap;html=1;" parent="1" vertex="1">
          <mxGeometry x="673.2" y="360" width="40" height="30" as="geometry" />
        </mxCell>
        <mxCell id="niinbXQ_s8YvSzmDSHEQ-79" value="crm" style="text;strokeColor=none;fillColor=none;spacingLeft=4;spacingRight=4;overflow=hidden;rotatable=0;points=[[0,0.5],[1,0.5]];portConstraint=eastwest;fontSize=12;whiteSpace=wrap;html=1;" parent="1" vertex="1">
          <mxGeometry x="723.2" y="360" width="50" height="30" as="geometry" />
        </mxCell>
        <mxCell id="niinbXQ_s8YvSzmDSHEQ-80" value="telefone" style="text;strokeColor=none;fillColor=none;spacingLeft=4;spacingRight=4;overflow=hidden;rotatable=0;points=[[0,0.5],[1,0.5]];portConstraint=eastwest;fontSize=12;whiteSpace=wrap;html=1;" parent="1" vertex="1">
          <mxGeometry x="673.2" y="510" width="70" height="30" as="geometry" />
        </mxCell>
        <mxCell id="niinbXQ_s8YvSzmDSHEQ-81" value="especialidade" style="text;strokeColor=none;fillColor=none;spacingLeft=4;spacingRight=4;overflow=hidden;rotatable=0;points=[[0,0.5],[1,0.5]];portConstraint=eastwest;fontSize=12;whiteSpace=wrap;html=1;" parent="1" vertex="1">
          <mxGeometry x="733.2" y="510" width="90" height="30" as="geometry" />
        </mxCell>
        <mxCell id="niinbXQ_s8YvSzmDSHEQ-82" style="edgeStyle=orthogonalEdgeStyle;rounded=0;orthogonalLoop=1;jettySize=auto;html=1;exitX=0.196;exitY=0.024;exitDx=0;exitDy=0;entryX=0.499;entryY=1.101;entryDx=0;entryDy=0;entryPerimeter=0;endArrow=oval;endFill=0;exitPerimeter=0;" parent="1" source="niinbXQ_s8YvSzmDSHEQ-77" target="niinbXQ_s8YvSzmDSHEQ-78" edge="1">
          <mxGeometry relative="1" as="geometry" />
        </mxCell>
        <mxCell id="niinbXQ_s8YvSzmDSHEQ-83" style="edgeStyle=orthogonalEdgeStyle;rounded=0;orthogonalLoop=1;jettySize=auto;html=1;exitX=0.75;exitY=0;exitDx=0;exitDy=0;entryX=0.441;entryY=1.055;entryDx=0;entryDy=0;entryPerimeter=0;endArrow=oval;endFill=1;" parent="1" source="niinbXQ_s8YvSzmDSHEQ-77" target="niinbXQ_s8YvSzmDSHEQ-79" edge="1">
          <mxGeometry relative="1" as="geometry">
            <mxPoint x="753.2" y="400" as="targetPoint" />
          </mxGeometry>
        </mxCell>
        <mxCell id="niinbXQ_s8YvSzmDSHEQ-84" style="edgeStyle=orthogonalEdgeStyle;rounded=0;orthogonalLoop=1;jettySize=auto;html=1;exitX=0.213;exitY=1.076;exitDx=0;exitDy=0;entryX=0.31;entryY=-0.014;entryDx=0;entryDy=0;entryPerimeter=0;endArrow=oval;endFill=0;exitPerimeter=0;" parent="1" source="niinbXQ_s8YvSzmDSHEQ-77" target="niinbXQ_s8YvSzmDSHEQ-80" edge="1">
          <mxGeometry relative="1" as="geometry" />
        </mxCell>
        <mxCell id="niinbXQ_s8YvSzmDSHEQ-117" style="edgeStyle=orthogonalEdgeStyle;rounded=0;orthogonalLoop=1;jettySize=auto;html=1;exitX=0.75;exitY=1;exitDx=0;exitDy=0;entryX=0.182;entryY=-0.152;entryDx=0;entryDy=0;entryPerimeter=0;endArrow=oval;endFill=0;" parent="1" source="niinbXQ_s8YvSzmDSHEQ-118" target="niinbXQ_s8YvSzmDSHEQ-122" edge="1">
          <mxGeometry relative="1" as="geometry">
            <mxPoint x="120" y="500" as="targetPoint" />
          </mxGeometry>
        </mxCell>
        <mxCell id="niinbXQ_s8YvSzmDSHEQ-118" value="Mae" style="whiteSpace=wrap;html=1;align=center;" parent="1" vertex="1">
          <mxGeometry x="30" y="430" width="110" height="40" as="geometry" />
        </mxCell>
        <mxCell id="niinbXQ_s8YvSzmDSHEQ-119" value="&lt;div&gt;nome&lt;/div&gt;" style="text;strokeColor=none;fillColor=none;spacingLeft=4;spacingRight=4;overflow=hidden;rotatable=0;points=[[0,0.5],[1,0.5]];portConstraint=eastwest;fontSize=12;whiteSpace=wrap;html=1;" parent="1" vertex="1">
          <mxGeometry x="30" y="371.65" width="40" height="30" as="geometry" />
        </mxCell>
        <mxCell id="niinbXQ_s8YvSzmDSHEQ-120" value="endereco" style="text;strokeColor=none;fillColor=none;spacingLeft=4;spacingRight=4;overflow=hidden;rotatable=0;points=[[0,0.5],[1,0.5]];portConstraint=eastwest;fontSize=12;whiteSpace=wrap;html=1;" parent="1" vertex="1">
          <mxGeometry x="80" y="371.65" width="80" height="30" as="geometry" />
        </mxCell>
        <mxCell id="niinbXQ_s8YvSzmDSHEQ-121" value="telefone" style="text;strokeColor=none;fillColor=none;spacingLeft=4;spacingRight=4;overflow=hidden;rotatable=0;points=[[0,0.5],[1,0.5]];portConstraint=eastwest;fontSize=12;whiteSpace=wrap;html=1;" parent="1" vertex="1">
          <mxGeometry x="30" y="510" width="70" height="30" as="geometry" />
        </mxCell>
        <mxCell id="niinbXQ_s8YvSzmDSHEQ-122" value="dataNascimento" style="text;strokeColor=none;fillColor=none;spacingLeft=4;spacingRight=4;overflow=hidden;rotatable=0;points=[[0,0.5],[1,0.5]];portConstraint=eastwest;fontSize=12;whiteSpace=wrap;html=1;" parent="1" vertex="1">
          <mxGeometry x="90" y="510" width="90" height="30" as="geometry" />
        </mxCell>
        <mxCell id="niinbXQ_s8YvSzmDSHEQ-123" style="edgeStyle=orthogonalEdgeStyle;rounded=0;orthogonalLoop=1;jettySize=auto;html=1;exitX=0.196;exitY=0.024;exitDx=0;exitDy=0;endArrow=oval;endFill=1;exitPerimeter=0;" parent="1" source="niinbXQ_s8YvSzmDSHEQ-118" edge="1">
          <mxGeometry relative="1" as="geometry">
            <mxPoint x="52" y="401.65" as="targetPoint" />
          </mxGeometry>
        </mxCell>
        <mxCell id="niinbXQ_s8YvSzmDSHEQ-124" style="edgeStyle=orthogonalEdgeStyle;rounded=0;orthogonalLoop=1;jettySize=auto;html=1;exitX=0.75;exitY=0;exitDx=0;exitDy=0;entryX=0.482;entryY=1.021;entryDx=0;entryDy=0;entryPerimeter=0;endArrow=oval;endFill=0;" parent="1" source="niinbXQ_s8YvSzmDSHEQ-118" target="niinbXQ_s8YvSzmDSHEQ-120" edge="1">
          <mxGeometry relative="1" as="geometry">
            <mxPoint x="115.27999999999975" y="391.64999999999986" as="targetPoint" />
          </mxGeometry>
        </mxCell>
        <mxCell id="niinbXQ_s8YvSzmDSHEQ-125" style="edgeStyle=orthogonalEdgeStyle;rounded=0;orthogonalLoop=1;jettySize=auto;html=1;exitX=0.213;exitY=1.076;exitDx=0;exitDy=0;entryX=0.31;entryY=-0.014;entryDx=0;entryDy=0;entryPerimeter=0;endArrow=oval;endFill=0;exitPerimeter=0;" parent="1" source="niinbXQ_s8YvSzmDSHEQ-118" target="niinbXQ_s8YvSzmDSHEQ-121" edge="1">
          <mxGeometry relative="1" as="geometry" />
        </mxCell>
        <mxCell id="niinbXQ_s8YvSzmDSHEQ-134" style="edgeStyle=orthogonalEdgeStyle;rounded=0;orthogonalLoop=1;jettySize=auto;html=1;exitX=1;exitY=0.5;exitDx=0;exitDy=0;endArrow=none;endFill=0;" parent="1" source="niinbXQ_s8YvSzmDSHEQ-118" target="6Jt0nRZ-1w5wAIzkCixZ-34" edge="1">
          <mxGeometry relative="1" as="geometry">
            <mxPoint x="220" y="450" as="targetPoint" />
          </mxGeometry>
        </mxCell>
        <mxCell id="6Jt0nRZ-1w5wAIzkCixZ-1" value="Ex04" style="text;html=1;align=center;verticalAlign=middle;resizable=0;points=[];autosize=1;strokeColor=none;fillColor=none;" vertex="1" parent="1">
          <mxGeometry x="35" y="598" width="50" height="30" as="geometry" />
        </mxCell>
        <mxCell id="6Jt0nRZ-1w5wAIzkCixZ-2" value="Produto" style="rounded=0;whiteSpace=wrap;html=1;" vertex="1" parent="1">
          <mxGeometry x="23.4" y="722" width="120" height="60" as="geometry" />
        </mxCell>
        <mxCell id="6Jt0nRZ-1w5wAIzkCixZ-4" value="codigo" style="text;html=1;align=center;verticalAlign=middle;resizable=0;points=[];autosize=1;strokeColor=none;fillColor=none;" vertex="1" parent="1">
          <mxGeometry x="8.4" y="660" width="60" height="30" as="geometry" />
        </mxCell>
        <mxCell id="6Jt0nRZ-1w5wAIzkCixZ-5" value="nome" style="text;html=1;align=center;verticalAlign=middle;resizable=0;points=[];autosize=1;strokeColor=none;fillColor=none;" vertex="1" parent="1">
          <mxGeometry x="108.4" y="660" width="50" height="30" as="geometry" />
        </mxCell>
        <mxCell id="6Jt0nRZ-1w5wAIzkCixZ-6" value="preco" style="text;html=1;align=center;verticalAlign=middle;resizable=0;points=[];autosize=1;strokeColor=none;fillColor=none;" vertex="1" parent="1">
          <mxGeometry x="13.4" y="820" width="50" height="30" as="geometry" />
        </mxCell>
        <mxCell id="6Jt0nRZ-1w5wAIzkCixZ-7" value="categoria" style="text;html=1;align=center;verticalAlign=middle;resizable=0;points=[];autosize=1;strokeColor=none;fillColor=none;" vertex="1" parent="1">
          <mxGeometry x="93.4" y="820" width="70" height="30" as="geometry" />
        </mxCell>
        <mxCell id="6Jt0nRZ-1w5wAIzkCixZ-8" style="edgeStyle=orthogonalEdgeStyle;rounded=0;orthogonalLoop=1;jettySize=auto;html=1;exitX=0.25;exitY=0;exitDx=0;exitDy=0;entryX=0.5;entryY=0.967;entryDx=0;entryDy=0;entryPerimeter=0;endArrow=oval;endFill=1;" edge="1" parent="1" source="6Jt0nRZ-1w5wAIzkCixZ-2" target="6Jt0nRZ-1w5wAIzkCixZ-4">
          <mxGeometry relative="1" as="geometry" />
        </mxCell>
        <mxCell id="6Jt0nRZ-1w5wAIzkCixZ-9" style="edgeStyle=orthogonalEdgeStyle;rounded=0;orthogonalLoop=1;jettySize=auto;html=1;exitX=1;exitY=0;exitDx=0;exitDy=0;entryX=0.44;entryY=0.967;entryDx=0;entryDy=0;entryPerimeter=0;endArrow=oval;endFill=0;" edge="1" parent="1" source="6Jt0nRZ-1w5wAIzkCixZ-2" target="6Jt0nRZ-1w5wAIzkCixZ-5">
          <mxGeometry relative="1" as="geometry" />
        </mxCell>
        <mxCell id="6Jt0nRZ-1w5wAIzkCixZ-10" style="edgeStyle=orthogonalEdgeStyle;rounded=0;orthogonalLoop=1;jettySize=auto;html=1;exitX=0;exitY=1;exitDx=0;exitDy=0;entryX=0.48;entryY=-0.067;entryDx=0;entryDy=0;entryPerimeter=0;endArrow=oval;endFill=0;" edge="1" parent="1" source="6Jt0nRZ-1w5wAIzkCixZ-2" target="6Jt0nRZ-1w5wAIzkCixZ-6">
          <mxGeometry relative="1" as="geometry" />
        </mxCell>
        <mxCell id="6Jt0nRZ-1w5wAIzkCixZ-11" style="edgeStyle=orthogonalEdgeStyle;rounded=0;orthogonalLoop=1;jettySize=auto;html=1;exitX=1;exitY=1;exitDx=0;exitDy=0;entryX=0.529;entryY=-0.067;entryDx=0;entryDy=0;entryPerimeter=0;endArrow=oval;endFill=0;" edge="1" parent="1" source="6Jt0nRZ-1w5wAIzkCixZ-2" target="6Jt0nRZ-1w5wAIzkCixZ-7">
          <mxGeometry relative="1" as="geometry" />
        </mxCell>
        <mxCell id="6Jt0nRZ-1w5wAIzkCixZ-22" style="edgeStyle=orthogonalEdgeStyle;rounded=0;orthogonalLoop=1;jettySize=auto;html=1;exitX=0.5;exitY=0;exitDx=0;exitDy=0;endArrow=oval;endFill=0;" edge="1" parent="1" source="6Jt0nRZ-1w5wAIzkCixZ-12" target="6Jt0nRZ-1w5wAIzkCixZ-21">
          <mxGeometry relative="1" as="geometry" />
        </mxCell>
        <mxCell id="6Jt0nRZ-1w5wAIzkCixZ-42" value="1" style="edgeStyle=orthogonalEdgeStyle;rounded=0;orthogonalLoop=1;jettySize=auto;html=1;endArrow=none;endFill=0;" edge="1" parent="1" source="6Jt0nRZ-1w5wAIzkCixZ-12" target="6Jt0nRZ-1w5wAIzkCixZ-41">
          <mxGeometry x="0.1292" y="-10" relative="1" as="geometry">
            <mxPoint as="offset" />
          </mxGeometry>
        </mxCell>
        <mxCell id="6Jt0nRZ-1w5wAIzkCixZ-12" value="&lt;div&gt;Cliente&lt;/div&gt;" style="rounded=0;whiteSpace=wrap;html=1;" vertex="1" parent="1">
          <mxGeometry x="651.6" y="722" width="120" height="60" as="geometry" />
        </mxCell>
        <mxCell id="6Jt0nRZ-1w5wAIzkCixZ-13" value="codigo" style="text;html=1;align=center;verticalAlign=middle;resizable=0;points=[];autosize=1;strokeColor=none;fillColor=none;" vertex="1" parent="1">
          <mxGeometry x="636.6" y="660" width="60" height="30" as="geometry" />
        </mxCell>
        <mxCell id="6Jt0nRZ-1w5wAIzkCixZ-14" value="nome" style="text;html=1;align=center;verticalAlign=middle;resizable=0;points=[];autosize=1;strokeColor=none;fillColor=none;" vertex="1" parent="1">
          <mxGeometry x="736.6" y="660" width="50" height="30" as="geometry" />
        </mxCell>
        <mxCell id="6Jt0nRZ-1w5wAIzkCixZ-15" value="&lt;div&gt;&lt;br&gt;&lt;/div&gt;&lt;div&gt;endereco&lt;/div&gt;" style="text;html=1;align=center;verticalAlign=middle;resizable=0;points=[];autosize=1;strokeColor=none;fillColor=none;" vertex="1" parent="1">
          <mxGeometry x="616.5999999999999" y="857" width="70" height="40" as="geometry" />
        </mxCell>
        <mxCell id="6Jt0nRZ-1w5wAIzkCixZ-16" value="telefone" style="text;html=1;align=center;verticalAlign=middle;resizable=0;points=[];autosize=1;strokeColor=none;fillColor=none;" vertex="1" parent="1">
          <mxGeometry x="734.8000000000001" y="867" width="70" height="30" as="geometry" />
        </mxCell>
        <mxCell id="6Jt0nRZ-1w5wAIzkCixZ-17" style="edgeStyle=orthogonalEdgeStyle;rounded=0;orthogonalLoop=1;jettySize=auto;html=1;exitX=0.25;exitY=0;exitDx=0;exitDy=0;entryX=0.5;entryY=0.967;entryDx=0;entryDy=0;entryPerimeter=0;endArrow=oval;endFill=1;" edge="1" parent="1" source="6Jt0nRZ-1w5wAIzkCixZ-12" target="6Jt0nRZ-1w5wAIzkCixZ-13">
          <mxGeometry relative="1" as="geometry" />
        </mxCell>
        <mxCell id="6Jt0nRZ-1w5wAIzkCixZ-18" style="edgeStyle=orthogonalEdgeStyle;rounded=0;orthogonalLoop=1;jettySize=auto;html=1;exitX=1;exitY=0;exitDx=0;exitDy=0;entryX=0.44;entryY=0.967;entryDx=0;entryDy=0;entryPerimeter=0;endArrow=oval;endFill=0;" edge="1" parent="1" source="6Jt0nRZ-1w5wAIzkCixZ-12" target="6Jt0nRZ-1w5wAIzkCixZ-14">
          <mxGeometry relative="1" as="geometry" />
        </mxCell>
        <mxCell id="6Jt0nRZ-1w5wAIzkCixZ-19" style="edgeStyle=orthogonalEdgeStyle;rounded=0;orthogonalLoop=1;jettySize=auto;html=1;exitX=0;exitY=1;exitDx=0;exitDy=0;endArrow=oval;endFill=0;" edge="1" parent="1" source="6Jt0nRZ-1w5wAIzkCixZ-12" target="6Jt0nRZ-1w5wAIzkCixZ-15">
          <mxGeometry relative="1" as="geometry">
            <mxPoint x="635.1999999999999" y="824.3199999999999" as="targetPoint" />
          </mxGeometry>
        </mxCell>
        <mxCell id="6Jt0nRZ-1w5wAIzkCixZ-20" style="edgeStyle=orthogonalEdgeStyle;rounded=0;orthogonalLoop=1;jettySize=auto;html=1;exitX=1;exitY=1;exitDx=0;exitDy=0;entryX=0.529;entryY=-0.067;entryDx=0;entryDy=0;entryPerimeter=0;endArrow=oval;endFill=0;" edge="1" parent="1" source="6Jt0nRZ-1w5wAIzkCixZ-12" target="6Jt0nRZ-1w5wAIzkCixZ-16">
          <mxGeometry relative="1" as="geometry" />
        </mxCell>
        <mxCell id="6Jt0nRZ-1w5wAIzkCixZ-21" value="status" style="text;html=1;align=center;verticalAlign=middle;resizable=0;points=[];autosize=1;strokeColor=none;fillColor=none;" vertex="1" parent="1">
          <mxGeometry x="681.6" y="660" width="60" height="30" as="geometry" />
        </mxCell>
        <mxCell id="6Jt0nRZ-1w5wAIzkCixZ-23" value="limiteCredito" style="text;html=1;align=center;verticalAlign=middle;resizable=0;points=[];autosize=1;strokeColor=none;fillColor=none;" vertex="1" parent="1">
          <mxGeometry x="671.6" y="837" width="90" height="30" as="geometry" />
        </mxCell>
        <mxCell id="6Jt0nRZ-1w5wAIzkCixZ-24" style="edgeStyle=orthogonalEdgeStyle;rounded=0;orthogonalLoop=1;jettySize=auto;html=1;entryX=0.444;entryY=-0.167;entryDx=0;entryDy=0;entryPerimeter=0;endArrow=oval;endFill=0;" edge="1" parent="1" source="6Jt0nRZ-1w5wAIzkCixZ-12" target="6Jt0nRZ-1w5wAIzkCixZ-23">
          <mxGeometry relative="1" as="geometry" />
        </mxCell>
        <mxCell id="6Jt0nRZ-1w5wAIzkCixZ-43" value="(1,n)" style="edgeStyle=orthogonalEdgeStyle;rounded=0;orthogonalLoop=1;jettySize=auto;html=1;entryX=0;entryY=0.5;entryDx=0;entryDy=0;endArrow=none;endFill=0;" edge="1" parent="1" source="6Jt0nRZ-1w5wAIzkCixZ-25" target="6Jt0nRZ-1w5wAIzkCixZ-41">
          <mxGeometry x="0.3349" y="10" relative="1" as="geometry">
            <mxPoint as="offset" />
          </mxGeometry>
        </mxCell>
        <mxCell id="6Jt0nRZ-1w5wAIzkCixZ-25" value="Pedido" style="rounded=0;whiteSpace=wrap;html=1;" vertex="1" parent="1">
          <mxGeometry x="338.4" y="722" width="120" height="60" as="geometry" />
        </mxCell>
        <mxCell id="6Jt0nRZ-1w5wAIzkCixZ-27" value="Compra" style="rounded=0;whiteSpace=wrap;html=1;" vertex="1" parent="1">
          <mxGeometry x="333.4" y="130" width="120" height="60" as="geometry" />
        </mxCell>
        <mxCell id="6Jt0nRZ-1w5wAIzkCixZ-28" value="Cliente_Compra" style="shape=rhombus;perimeter=rhombusPerimeter;whiteSpace=wrap;html=1;align=center;" vertex="1" parent="1">
          <mxGeometry x="153.4" y="130" width="120" height="60" as="geometry" />
        </mxCell>
        <mxCell id="6Jt0nRZ-1w5wAIzkCixZ-30" value="" style="edgeStyle=orthogonalEdgeStyle;rounded=0;orthogonalLoop=1;jettySize=auto;html=1;entryX=0;entryY=0.5;entryDx=0;entryDy=0;endArrow=none;endFill=0;" edge="1" parent="1" source="6Jt0nRZ-1w5wAIzkCixZ-27" target="6Jt0nRZ-1w5wAIzkCixZ-29">
          <mxGeometry relative="1" as="geometry">
            <mxPoint x="453.4" y="160" as="sourcePoint" />
            <mxPoint x="684.4" y="160" as="targetPoint" />
          </mxGeometry>
        </mxCell>
        <mxCell id="6Jt0nRZ-1w5wAIzkCixZ-29" value="Compra_produto" style="shape=rhombus;perimeter=rhombusPerimeter;whiteSpace=wrap;html=1;align=center;" vertex="1" parent="1">
          <mxGeometry x="496.6" y="130" width="120" height="60" as="geometry" />
        </mxCell>
        <mxCell id="6Jt0nRZ-1w5wAIzkCixZ-31" value="(1,n)" style="text;html=1;align=center;verticalAlign=middle;resizable=0;points=[];autosize=1;strokeColor=none;fillColor=none;" vertex="1" parent="1">
          <mxGeometry x="273.4" y="130" width="50" height="30" as="geometry" />
        </mxCell>
        <mxCell id="6Jt0nRZ-1w5wAIzkCixZ-32" value="(1,n)" style="text;strokeColor=none;fillColor=none;spacingLeft=4;spacingRight=4;overflow=hidden;rotatable=0;points=[[0,0.5],[1,0.5]];portConstraint=eastwest;fontSize=12;whiteSpace=wrap;html=1;" vertex="1" parent="1">
          <mxGeometry x="456.6" y="130" width="40" height="30" as="geometry" />
        </mxCell>
        <mxCell id="6Jt0nRZ-1w5wAIzkCixZ-34" value="Bebe" style="whiteSpace=wrap;html=1;align=center;" vertex="1" parent="1">
          <mxGeometry x="360" y="430" width="100" height="40" as="geometry" />
        </mxCell>
        <mxCell id="6Jt0nRZ-1w5wAIzkCixZ-35" style="edgeStyle=orthogonalEdgeStyle;rounded=0;orthogonalLoop=1;jettySize=auto;html=1;exitX=0.25;exitY=1;exitDx=0;exitDy=0;entryX=0.32;entryY=-0.033;entryDx=0;entryDy=0;entryPerimeter=0;endArrow=oval;endFill=0;" edge="1" parent="1" source="6Jt0nRZ-1w5wAIzkCixZ-34" target="niinbXQ_s8YvSzmDSHEQ-70">
          <mxGeometry relative="1" as="geometry" />
        </mxCell>
        <mxCell id="6Jt0nRZ-1w5wAIzkCixZ-37" value="Mae_Bebe" style="shape=rhombus;perimeter=rhombusPerimeter;whiteSpace=wrap;html=1;align=center;" vertex="1" parent="1">
          <mxGeometry x="190" y="420" width="120" height="60" as="geometry" />
        </mxCell>
        <mxCell id="6Jt0nRZ-1w5wAIzkCixZ-39" value="" style="edgeStyle=orthogonalEdgeStyle;rounded=0;orthogonalLoop=1;jettySize=auto;html=1;endArrow=none;endFill=0;" edge="1" parent="1" source="niinbXQ_s8YvSzmDSHEQ-77" target="6Jt0nRZ-1w5wAIzkCixZ-38">
          <mxGeometry relative="1" as="geometry">
            <mxPoint x="673" y="450" as="sourcePoint" />
            <mxPoint x="460" y="450" as="targetPoint" />
          </mxGeometry>
        </mxCell>
        <mxCell id="6Jt0nRZ-1w5wAIzkCixZ-38" value="Medico_Bebe" style="shape=rhombus;perimeter=rhombusPerimeter;whiteSpace=wrap;html=1;align=center;" vertex="1" parent="1">
          <mxGeometry x="510" y="420" width="120" height="60" as="geometry" />
        </mxCell>
        <mxCell id="6Jt0nRZ-1w5wAIzkCixZ-44" value="(1,n)" style="edgeStyle=orthogonalEdgeStyle;rounded=0;orthogonalLoop=1;jettySize=auto;html=1;exitX=1;exitY=0.5;exitDx=0;exitDy=0;endArrow=none;endFill=0;" edge="1" parent="1" source="6Jt0nRZ-1w5wAIzkCixZ-40" target="6Jt0nRZ-1w5wAIzkCixZ-25">
          <mxGeometry y="10" relative="1" as="geometry">
            <mxPoint as="offset" />
          </mxGeometry>
        </mxCell>
        <mxCell id="6Jt0nRZ-1w5wAIzkCixZ-45" value="(1,n)" style="edgeStyle=orthogonalEdgeStyle;rounded=0;orthogonalLoop=1;jettySize=auto;html=1;exitX=0;exitY=0.5;exitDx=0;exitDy=0;endArrow=none;endFill=0;" edge="1" parent="1" source="6Jt0nRZ-1w5wAIzkCixZ-40" target="6Jt0nRZ-1w5wAIzkCixZ-2">
          <mxGeometry x="0.3324" y="-10" relative="1" as="geometry">
            <mxPoint x="148.4" y="762" as="targetPoint" />
            <Array as="points" />
            <mxPoint as="offset" />
          </mxGeometry>
        </mxCell>
        <mxCell id="6Jt0nRZ-1w5wAIzkCixZ-40" value="Produto_Pedido" style="shape=rhombus;perimeter=rhombusPerimeter;whiteSpace=wrap;html=1;align=center;" vertex="1" parent="1">
          <mxGeometry x="178.4" y="722" width="120" height="60" as="geometry" />
        </mxCell>
        <mxCell id="6Jt0nRZ-1w5wAIzkCixZ-41" value="Cliente_pedido" style="shape=rhombus;perimeter=rhombusPerimeter;whiteSpace=wrap;html=1;align=center;" vertex="1" parent="1">
          <mxGeometry x="493.4" y="722" width="120" height="60" as="geometry" />
        </mxCell>
        <mxCell id="6Jt0nRZ-1w5wAIzkCixZ-48" value="Ex04" style="text;html=1;align=center;verticalAlign=middle;resizable=0;points=[];autosize=1;strokeColor=none;fillColor=none;" vertex="1" parent="1">
          <mxGeometry x="38.2" y="920" width="50" height="30" as="geometry" />
        </mxCell>
        <mxCell id="6Jt0nRZ-1w5wAIzkCixZ-49" value="Livro" style="rounded=0;whiteSpace=wrap;html=1;" vertex="1" parent="1">
          <mxGeometry x="26.599999999999998" y="1044" width="120" height="60" as="geometry" />
        </mxCell>
        <mxCell id="6Jt0nRZ-1w5wAIzkCixZ-50" value="ISBN" style="text;html=1;align=center;verticalAlign=middle;resizable=0;points=[];autosize=1;strokeColor=none;fillColor=none;" vertex="1" parent="1">
          <mxGeometry x="16.599999999999998" y="982" width="50" height="30" as="geometry" />
        </mxCell>
        <mxCell id="6Jt0nRZ-1w5wAIzkCixZ-51" value="titulo" style="text;html=1;align=center;verticalAlign=middle;resizable=0;points=[];autosize=1;strokeColor=none;fillColor=none;" vertex="1" parent="1">
          <mxGeometry x="111.60000000000001" y="982" width="50" height="30" as="geometry" />
        </mxCell>
        <mxCell id="6Jt0nRZ-1w5wAIzkCixZ-52" value="ano" style="text;html=1;align=center;verticalAlign=middle;resizable=0;points=[];autosize=1;strokeColor=none;fillColor=none;" vertex="1" parent="1">
          <mxGeometry x="21.599999999999998" y="1142" width="40" height="30" as="geometry" />
        </mxCell>
        <mxCell id="6Jt0nRZ-1w5wAIzkCixZ-53" value="editora" style="text;html=1;align=center;verticalAlign=middle;resizable=0;points=[];autosize=1;strokeColor=none;fillColor=none;" vertex="1" parent="1">
          <mxGeometry x="101.60000000000001" y="1142" width="60" height="30" as="geometry" />
        </mxCell>
        <mxCell id="6Jt0nRZ-1w5wAIzkCixZ-54" style="edgeStyle=orthogonalEdgeStyle;rounded=0;orthogonalLoop=1;jettySize=auto;html=1;exitX=0.25;exitY=0;exitDx=0;exitDy=0;entryX=0.5;entryY=0.967;entryDx=0;entryDy=0;entryPerimeter=0;endArrow=oval;endFill=1;" edge="1" parent="1" source="6Jt0nRZ-1w5wAIzkCixZ-49" target="6Jt0nRZ-1w5wAIzkCixZ-50">
          <mxGeometry relative="1" as="geometry" />
        </mxCell>
        <mxCell id="6Jt0nRZ-1w5wAIzkCixZ-55" style="edgeStyle=orthogonalEdgeStyle;rounded=0;orthogonalLoop=1;jettySize=auto;html=1;exitX=1;exitY=0;exitDx=0;exitDy=0;entryX=0.44;entryY=0.967;entryDx=0;entryDy=0;entryPerimeter=0;endArrow=oval;endFill=0;" edge="1" parent="1" source="6Jt0nRZ-1w5wAIzkCixZ-49" target="6Jt0nRZ-1w5wAIzkCixZ-51">
          <mxGeometry relative="1" as="geometry" />
        </mxCell>
        <mxCell id="6Jt0nRZ-1w5wAIzkCixZ-56" style="edgeStyle=orthogonalEdgeStyle;rounded=0;orthogonalLoop=1;jettySize=auto;html=1;exitX=0;exitY=1;exitDx=0;exitDy=0;entryX=0.48;entryY=-0.067;entryDx=0;entryDy=0;entryPerimeter=0;endArrow=oval;endFill=0;" edge="1" parent="1" source="6Jt0nRZ-1w5wAIzkCixZ-49" target="6Jt0nRZ-1w5wAIzkCixZ-52">
          <mxGeometry relative="1" as="geometry" />
        </mxCell>
        <mxCell id="6Jt0nRZ-1w5wAIzkCixZ-57" style="edgeStyle=orthogonalEdgeStyle;rounded=0;orthogonalLoop=1;jettySize=auto;html=1;exitX=1;exitY=1;exitDx=0;exitDy=0;entryX=0.529;entryY=-0.067;entryDx=0;entryDy=0;entryPerimeter=0;endArrow=oval;endFill=0;" edge="1" parent="1" source="6Jt0nRZ-1w5wAIzkCixZ-49" target="6Jt0nRZ-1w5wAIzkCixZ-53">
          <mxGeometry relative="1" as="geometry" />
        </mxCell>
        <mxCell id="6Jt0nRZ-1w5wAIzkCixZ-82" style="edgeStyle=orthogonalEdgeStyle;rounded=0;orthogonalLoop=1;jettySize=auto;html=1;exitX=0.25;exitY=1;exitDx=0;exitDy=0;endArrow=oval;endFill=0;" edge="1" parent="1" source="6Jt0nRZ-1w5wAIzkCixZ-73" target="6Jt0nRZ-1w5wAIzkCixZ-81">
          <mxGeometry relative="1" as="geometry" />
        </mxCell>
        <mxCell id="6Jt0nRZ-1w5wAIzkCixZ-73" value="autor" style="rounded=0;whiteSpace=wrap;html=1;" vertex="1" parent="1">
          <mxGeometry x="341.59999999999997" y="1044" width="120" height="60" as="geometry" />
        </mxCell>
        <mxCell id="6Jt0nRZ-1w5wAIzkCixZ-74" value="(1,n)" style="edgeStyle=orthogonalEdgeStyle;rounded=0;orthogonalLoop=1;jettySize=auto;html=1;exitX=1;exitY=0.5;exitDx=0;exitDy=0;endArrow=none;endFill=0;" edge="1" parent="1" source="6Jt0nRZ-1w5wAIzkCixZ-76" target="6Jt0nRZ-1w5wAIzkCixZ-73">
          <mxGeometry y="10" relative="1" as="geometry">
            <mxPoint as="offset" />
          </mxGeometry>
        </mxCell>
        <mxCell id="6Jt0nRZ-1w5wAIzkCixZ-75" value="(1,n)" style="edgeStyle=orthogonalEdgeStyle;rounded=0;orthogonalLoop=1;jettySize=auto;html=1;exitX=0;exitY=0.5;exitDx=0;exitDy=0;endArrow=none;endFill=0;" edge="1" parent="1" source="6Jt0nRZ-1w5wAIzkCixZ-76" target="6Jt0nRZ-1w5wAIzkCixZ-49">
          <mxGeometry x="0.3324" y="-10" relative="1" as="geometry">
            <mxPoint x="151.6" y="1084" as="targetPoint" />
            <Array as="points" />
            <mxPoint as="offset" />
          </mxGeometry>
        </mxCell>
        <mxCell id="6Jt0nRZ-1w5wAIzkCixZ-76" value="Livro_Autor" style="shape=rhombus;perimeter=rhombusPerimeter;whiteSpace=wrap;html=1;align=center;" vertex="1" parent="1">
          <mxGeometry x="181.6" y="1044" width="120" height="60" as="geometry" />
        </mxCell>
        <mxCell id="6Jt0nRZ-1w5wAIzkCixZ-80" value="nome" style="text;html=1;align=center;verticalAlign=middle;resizable=0;points=[];autosize=1;strokeColor=none;fillColor=none;" vertex="1" parent="1">
          <mxGeometry x="345" y="988" width="50" height="30" as="geometry" />
        </mxCell>
        <mxCell id="6Jt0nRZ-1w5wAIzkCixZ-81" value="nacionalidade" style="text;html=1;align=center;verticalAlign=middle;resizable=0;points=[];autosize=1;strokeColor=none;fillColor=none;" vertex="1" parent="1">
          <mxGeometry x="320" y="1128" width="100" height="30" as="geometry" />
        </mxCell>
        <mxCell id="6Jt0nRZ-1w5wAIzkCixZ-83" style="edgeStyle=orthogonalEdgeStyle;rounded=0;orthogonalLoop=1;jettySize=auto;html=1;exitX=0.25;exitY=0;exitDx=0;exitDy=0;entryX=0.36;entryY=1;entryDx=0;entryDy=0;entryPerimeter=0;endArrow=oval;endFill=1;" edge="1" parent="1" source="6Jt0nRZ-1w5wAIzkCixZ-73" target="6Jt0nRZ-1w5wAIzkCixZ-80">
          <mxGeometry relative="1" as="geometry" />
        </mxCell>
        <mxCell id="6Jt0nRZ-1w5wAIzkCixZ-88" style="edgeStyle=orthogonalEdgeStyle;rounded=0;orthogonalLoop=1;jettySize=auto;html=1;exitX=0.25;exitY=1;exitDx=0;exitDy=0;endArrow=oval;endFill=0;" edge="1" parent="1" source="6Jt0nRZ-1w5wAIzkCixZ-89" target="6Jt0nRZ-1w5wAIzkCixZ-92">
          <mxGeometry relative="1" as="geometry" />
        </mxCell>
        <mxCell id="6Jt0nRZ-1w5wAIzkCixZ-89" value="categoria" style="rounded=0;whiteSpace=wrap;html=1;" vertex="1" parent="1">
          <mxGeometry x="26.599999999999966" y="1340" width="120" height="60" as="geometry" />
        </mxCell>
        <mxCell id="6Jt0nRZ-1w5wAIzkCixZ-91" value="codigo" style="text;html=1;align=center;verticalAlign=middle;resizable=0;points=[];autosize=1;strokeColor=none;fillColor=none;" vertex="1" parent="1">
          <mxGeometry x="26.6" y="1280" width="60" height="30" as="geometry" />
        </mxCell>
        <mxCell id="6Jt0nRZ-1w5wAIzkCixZ-92" value="descricao" style="text;html=1;align=center;verticalAlign=middle;resizable=0;points=[];autosize=1;strokeColor=none;fillColor=none;" vertex="1" parent="1">
          <mxGeometry x="21.6" y="1420" width="70" height="30" as="geometry" />
        </mxCell>
        <mxCell id="6Jt0nRZ-1w5wAIzkCixZ-93" style="edgeStyle=orthogonalEdgeStyle;rounded=0;orthogonalLoop=1;jettySize=auto;html=1;exitX=0.25;exitY=0;exitDx=0;exitDy=0;entryX=0.36;entryY=1;entryDx=0;entryDy=0;entryPerimeter=0;endArrow=oval;endFill=1;" edge="1" parent="1" source="6Jt0nRZ-1w5wAIzkCixZ-89" target="6Jt0nRZ-1w5wAIzkCixZ-91">
          <mxGeometry relative="1" as="geometry" />
        </mxCell>
        <mxCell id="6Jt0nRZ-1w5wAIzkCixZ-95" value="(1,n)" style="edgeStyle=orthogonalEdgeStyle;rounded=0;orthogonalLoop=1;jettySize=auto;html=1;exitX=0.5;exitY=0;exitDx=0;exitDy=0;entryX=0.5;entryY=1;entryDx=0;entryDy=0;" edge="1" parent="1" source="6Jt0nRZ-1w5wAIzkCixZ-94" target="6Jt0nRZ-1w5wAIzkCixZ-49">
          <mxGeometry x="0.0417" y="-13" relative="1" as="geometry">
            <mxPoint as="offset" />
          </mxGeometry>
        </mxCell>
        <mxCell id="6Jt0nRZ-1w5wAIzkCixZ-96" value="1" style="edgeStyle=orthogonalEdgeStyle;rounded=0;orthogonalLoop=1;jettySize=auto;html=1;exitX=0.5;exitY=1;exitDx=0;exitDy=0;" edge="1" parent="1" source="6Jt0nRZ-1w5wAIzkCixZ-94" target="6Jt0nRZ-1w5wAIzkCixZ-89">
          <mxGeometry y="23" relative="1" as="geometry">
            <mxPoint as="offset" />
          </mxGeometry>
        </mxCell>
        <mxCell id="6Jt0nRZ-1w5wAIzkCixZ-94" value="Livro_Categoria" style="shape=rhombus;perimeter=rhombusPerimeter;whiteSpace=wrap;html=1;align=center;" vertex="1" parent="1">
          <mxGeometry x="26.599999999999984" y="1200" width="120" height="60" as="geometry" />
        </mxCell>
        <mxCell id="6Jt0nRZ-1w5wAIzkCixZ-98" style="edgeStyle=orthogonalEdgeStyle;rounded=0;orthogonalLoop=1;jettySize=auto;html=1;exitX=0.75;exitY=0;exitDx=0;exitDy=0;entryX=0.409;entryY=1.1;entryDx=0;entryDy=0;entryPerimeter=0;endArrow=oval;endFill=0;" edge="1" parent="1" source="6Jt0nRZ-1w5wAIzkCixZ-34" target="niinbXQ_s8YvSzmDSHEQ-69">
          <mxGeometry relative="1" as="geometry" />
        </mxCell>
      </root>
    </mxGraphModel>
  </diagram>
</mxfile>
